<?xml version="1.0" encoding="utf-8"?>
<!-- Generator: Adobe Illustrator 22.0.1, SVG Export Plug-In . SVG Version: 6.00 Build 0)  -->
<svg version="1.1" id="Calque_1" xmlns="http://www.w3.org/2000/svg" xmlns:xlink="http://www.w3.org/1999/xlink" x="0px" y="0px"
	 viewBox="0 0 128 128" style="enable-background:new 0 0 128 128;" xml:space="preserve">
<style type="text/css">
	.st0{fill:#90C5DD;}
	.st1{opacity:0.24;}
	.st2{fill:#FFFFFF;}
	.st3{fill:#FCFDFF;}
</style>
<g>
	<g id="cercle_fond_15_">
		<g>
			<circle class="st0" cx="62.9" cy="63.8" r="57.4"/>
		</g>
		<g class="st1">
			<path class="st2" d="M63.2,6.6c31.7,0,57.4,25.7,57.4,57.4s-25.7,57.4-57.4,57.4"/>
		</g>
	</g>
	<path class="st2" d="M88.5,46.3c-0.2,1-14.8-34-24.7,0c-6.9-24.7-25.7-14-22.9,1.8C31,37,23.3,42.4,23.6,53.8
		c-8.1-9-10.9,8.6-4.8,10.7h78.4c0,0,14-8.6,4.1-17.5C116.5,44.5,94.4,14.8,88.5,46.3z M52.4,34.1c4.3,0.4,4.5,4.3,4.5,4.3
		L52.4,34.1z M104.1,42.1L99.5,34C105.6,36.8,104.1,42.1,104.1,42.1z"/>
	<path class="st3" d="M56.7,95.4c0,0-4.3-0.1-5.9-0.1c-3.3,0-6,2.7-6,6c0,3.3,2.7,6,6,6c3.3,0,6-2.7,6-6
		C56.9,99.6,56.7,95.4,56.7,95.4z M46.9,99.6c0.4-2.9,3.3-2.9,3.3-2.9L46.9,99.6z"/>
	<path class="st3" d="M46.9,68.2c0,0-4.3-0.1-5.9-0.1c-3.3,0-6,2.7-6,6c0,3.3,2.7,6,6,6c3.3,0,6-2.7,6-6
		C47.1,72.4,46.9,68.2,46.9,68.2z M37.1,72.5c0.4-2.9,3.3-2.9,3.3-2.9L37.1,72.5z"/>
	<path class="st3" d="M60.2,68.1c0,0-4.3-0.1-5.9-0.1c-3.3,0-6,2.7-6,6c0,3.3,2.7,6,6,6c3.3,0,6-2.7,6-6
		C60.4,72.4,60.2,68.1,60.2,68.1z M50.4,72.4c0.4-2.9,3.3-2.9,3.3-2.9L50.4,72.4z"/>
	<path class="st3" d="M73.2,68.3c0,0-4.3-0.1-5.9-0.1c-3.3,0-6,2.7-6,6c0,3.3,2.7,6,6,6c3.3,0,6-2.7,6-6
		C73.4,72.5,73.2,68.3,73.2,68.3z M63.4,72.5c0.4-2.9,3.3-2.9,3.3-2.9L63.4,72.5z"/>
	<path class="st3" d="M52,81.4c0,0-4.3-0.1-5.9-0.1c-3.3,0-6,2.7-6,6c0,3.3,2.7,6,6,6c3.3,0,6-2.7,6-6C52.2,85.6,52,81.4,52,81.4z
		 M42.2,85.6c0.4-2.9,3.3-2.9,3.3-2.9L42.2,85.6z"/>
	<path class="st3" d="M64.9,81.4c0,0-4.3-0.1-5.9-0.1c-3.3,0-6,2.7-6,6c0,3.3,2.7,6,6,6c3.3,0,6-2.7,6-6
		C65.1,85.6,64.9,81.4,64.9,81.4z M55.1,85.6c0.4-2.9,3.3-2.9,3.3-2.9L55.1,85.6z"/>
	<path class="st3" d="M86.4,68.1c0,0-4.3-0.1-5.9-0.1c-3.3,0-6,2.7-6,6c0,3.3,2.7,6,6,6c3.3,0,6-2.7,6-6
		C86.6,72.3,86.4,68.1,86.4,68.1z M76.6,72.3c0.4-2.9,3.3-2.9,3.3-2.9L76.6,72.3z"/>
</g>
</svg>
