<?xml version="1.0" encoding="utf-8"?>
<!-- Generator: Adobe Illustrator 22.0.1, SVG Export Plug-In . SVG Version: 6.00 Build 0)  -->
<svg version="1.1" id="Calque_1" xmlns="http://www.w3.org/2000/svg" xmlns:xlink="http://www.w3.org/1999/xlink" x="0px" y="0px"
	 viewBox="0 0 128 128" style="enable-background:new 0 0 128 128;" xml:space="preserve">
<style type="text/css">
	.st0{fill:#1598D2;}
	.st1{opacity:0.24;}
	.st2{fill:#FFFFFF;}
	.st3{fill:#FCFDFF;}
</style>
<g>
	<g id="cercle_fond_16_">
		<g>
			<circle class="st0" cx="64.6" cy="65.1" r="55.1"/>
		</g>
		<g class="st1">
			<path class="st2" d="M64.9,10.1c30.4,0,55.1,24.7,55.1,55.1s-24.7,55.1-55.1,55.1"/>
		</g>
	</g>
	<g>
		<path class="st3" d="M108.2,91.4l-17.4-9.6c-0.2-0.1-0.4,0.1-0.4,0.3l2,9.6c0.1,0.3-0.4,0.5-0.5,0.1l-3.2-11.1
			c0-0.1-0.1-0.1-0.1-0.2l-10-5.5c-0.2-0.1-0.4,0.1-0.4,0.3L79.7,86c0,0.3-0.4,0.4-0.5,0.1l-3-12.2c0-0.1-0.1-0.1-0.1-0.2l-6.1-3.4
			c-0.1,0-0.2,0-0.2,0l-4.7,2.3c-0.1,0-0.1,0.1-0.1,0.2L64.7,79c0,0.1,0,0.1,0.1,0.2l8.7,8.4c0.2,0.2-0.1,0.6-0.4,0.4l-8-6.6
			c-0.2-0.1-0.4,0-0.4,0.2l-0.1,12c0,0.1,0,0.1,0.1,0.2l9.3,9.4c0.2,0.2-0.1,0.6-0.4,0.4L65,96.1c-0.2-0.1-0.4,0-0.4,0.2l-0.2,17.3
			l-0.4-17c0-0.2-0.3-0.3-0.4-0.2l-8.6,7.3c-0.3,0.2-0.6-0.2-0.4-0.4l9.3-9.3c0.1-0.1,0.1-0.1,0.1-0.2l-0.3-11.5
			c0-0.2-0.3-0.3-0.4-0.2L55.7,88c-0.3,0.2-0.6-0.2-0.3-0.4l8.1-7.4c0.1-0.1,0.1-0.1,0.1-0.2l-0.2-7.2c0-0.1,0-0.2-0.1-0.2l-4.4-2.9
			c-0.1-0.1-0.2-0.1-0.3,0l-5.7,3.1c-0.1,0-0.1,0.1-0.1,0.2l-2.8,11.4c-0.1,0.3-0.6,0.2-0.5-0.1l1.7-10c0-0.2-0.2-0.4-0.4-0.3
			l-11.4,6.2c-0.1,0-0.1,0.1-0.1,0.2l-3,11.5c-0.1,0.3-0.6,0.2-0.5-0.1l1.8-10c0-0.2-0.2-0.4-0.4-0.3l-16.5,9l16.3-9.6
			c0.2-0.1,0.2-0.4-0.1-0.5l-10.5-3.3c-0.3-0.1-0.2-0.6,0.1-0.5l12.4,3c0.1,0,0.1,0,0.2,0l11.4-6.8c0.2-0.1,0.2-0.4-0.1-0.5
			l-9.8-3.1c-0.3-0.1-0.2-0.6,0.1-0.5l11.8,2.8c0.1,0,0.1,0,0.2,0l5.2-3.1c0.1,0,0.1-0.1,0.1-0.2l0.3-5.1c0-0.1,0-0.2-0.1-0.2
			l-6.5-3.9c-0.1,0-0.1,0-0.2,0l-11.9,2.9c-0.3,0.1-0.5-0.4-0.1-0.5l10-3.3c0.2-0.1,0.3-0.4,0.1-0.5l-11.4-6.9c-0.1,0-0.1,0-0.2,0
			l-11.4,3.8c-0.3,0.1-0.5-0.4-0.2-0.5l9.9-4c0.2-0.1,0.2-0.4,0-0.5l-9.7-5.9c-0.1-0.1-0.2-0.3-0.1-0.4l0.2-0.3
			c0.1-0.1,0.2-0.1,0.3-0.1l10,5.9c0.2,0.1,0.4,0,0.4-0.3l-1.5-10.5c0-0.3,0.4-0.4,0.5-0.1l2.8,12.1c0,0.1,0.1,0.1,0.1,0.2l10.9,6.4
			c0.2,0.1,0.4,0,0.4-0.3l-1.4-9.8c0-0.3,0.4-0.4,0.5-0.1l2.7,11.4c0,0.1,0.1,0.1,0.1,0.2l6.4,3.8c0.1,0,0.2,0,0.3,0l4.8-2.4
			c0.1,0,0.1-0.1,0.1-0.2l0.1-6.8c0-0.1,0-0.1-0.1-0.2l-9.1-9.2c-0.2-0.2,0.1-0.6,0.4-0.4l8.5,7.1c0.2,0.1,0.4,0,0.4-0.2l0.2-12.5
			c0-0.1,0-0.1-0.1-0.2L54.3,26.4c-0.2-0.2,0.1-0.6,0.4-0.4l9.5,7.9c0.2,0.1,0.4,0,0.4-0.2l0.2-13.7l0-1.3l0.3-0.4l0.2,15.4
			c0,0.2,0.3,0.3,0.4,0.2l9.1-8c0.3-0.2,0.6,0.1,0.4,0.4l-9.8,10.3c0,0.1-0.1,0.1-0.1,0.2l0.2,12.1c0,0.2,0.3,0.3,0.4,0.2l7.9-6.8
			c0.3-0.2,0.6,0.2,0.4,0.4l-8.6,8.5c-0.1,0.1-0.1,0.1-0.1,0.2l0.1,7.6c0,0.1,0,0.2,0.1,0.2l4.4,2.9c0.1,0.1,0.2,0.1,0.3,0l6.4-3.4
			c0.1,0,0.1-0.1,0.1-0.2l1-10.1c0-0.3,0.5-0.3,0.5,0l0,8.9c0,0.2,0.2,0.3,0.4,0.2L89,52.3c0.1,0,0.1-0.1,0.1-0.2l2.5-11.2
			c0.1-0.3,0.6-0.2,0.5,0.1l-1.6,10c0,0.2,0.2,0.4,0.4,0.3l15-8l-14.3,8.6c-0.2,0.1-0.2,0.4,0.1,0.5l16.6,4l-18.4-3.4
			c-0.1,0-0.1,0-0.2,0l-9.9,5.5c-0.2,0.1-0.2,0.4,0,0.5l7,3.3c0.3,0.1,0.1,0.6-0.2,0.5l-8.5-3.2c-0.1,0-0.2,0-0.2,0l-6.8,4
			c-0.1,0-0.1,0.1-0.1,0.2l-0.3,5c0,0.1,0,0.2,0.1,0.2l6.2,3.7c0.1,0,0.1,0,0.2,0l10.2-3.1c0.3-0.1,0.5,0.4,0.2,0.5l-8.6,3.2
			c-0.2,0.1-0.2,0.4,0,0.5l10.5,6.3c0.1,0,0.1,0,0.2,0l10.7-2.7c0.3-0.1,0.5,0.4,0.2,0.5l-8.9,3c-0.2,0.1-0.2,0.4-0.1,0.5
			L108.2,91.4z"/>
		<circle class="st3" cx="26.6" cy="42.5" r="2.5"/>
		<circle class="st3" cx="65" cy="18.2" r="2.5"/>
		<circle class="st3" cx="105.1" cy="43.9" r="2.5"/>
		<circle class="st3" cx="106" cy="89.8" r="2.5"/>
		<circle class="st3" cx="64.1" cy="111.2" r="2.5"/>
		<circle class="st3" cx="21.7" cy="89.7" r="2.5"/>
		<circle class="st3" cx="25" cy="76.2" r="1.6"/>
		<circle class="st3" cx="35.4" cy="92.4" r="1.6"/>
		<circle class="st3" cx="40" cy="68.4" r="1.6"/>
		<circle class="st3" cx="49.6" cy="85" r="1.6"/>
		<circle class="st3" cx="36" cy="37" r="1.6"/>
		<circle class="st3" cx="25.9" cy="53.9" r="1.6"/>
		<circle class="st3" cx="49.3" cy="45.9" r="1.6"/>
		<circle class="st3" cx="38.7" cy="61.2" r="1.6"/>
		<circle class="st3" cx="55.3" cy="42.2" r="1.6"/>
		<circle class="st3" cx="74.6" cy="42.2" r="1.6"/>
		<circle class="st3" cx="54.6" cy="25.7" r="1.6"/>
		<circle class="st3" cx="75.7" cy="25.4" r="1.6"/>
		<circle class="st3" cx="78.5" cy="48.3" r="1.6"/>
		<circle class="st3" cx="86.9" cy="62.5" r="1.6"/>
		<circle class="st3" cx="92.1" cy="40" r="1.6"/>
		<circle class="st3" cx="107.5" cy="56.4" r="1.6"/>
		<circle class="st3" cx="79.5" cy="86.6" r="1.6"/>
		<circle class="st3" cx="87.9" cy="69.6" r="1.6"/>
		<circle class="st3" cx="101.1" cy="77.4" r="1.6"/>
		<circle class="st3" cx="92.2" cy="92.8" r="1.6"/>
		<circle class="st3" cx="55.2" cy="88.1" r="1.6"/>
		<circle class="st3" cx="73.4" cy="88.5" r="1.6"/>
		<circle class="st3" cx="54.3" cy="103.6" r="1.6"/>
		<circle class="st3" cx="73.5" cy="103.2" r="1.6"/>
	</g>
</g>
</svg>
