<?xml version="1.0" encoding="utf-8"?>
<!-- Generator: Adobe Illustrator 22.0.1, SVG Export Plug-In . SVG Version: 6.00 Build 0)  -->
<svg version="1.1" id="Calque_1" xmlns="http://www.w3.org/2000/svg" xmlns:xlink="http://www.w3.org/1999/xlink" x="0px" y="0px"
	 viewBox="0 0 128 128" style="enable-background:new 0 0 128 128;" xml:space="preserve">
<style type="text/css">
	.st0{fill:#F1EBBA;}
	.st1{opacity:0.59;}
	.st2{fill:#FFFFFF;}
	.st3{fill:#E4C421;}
</style>
<g>
	<g id="cercle_fond_12_">
		<g>
			<circle class="st0" cx="65.1" cy="64.7" r="58.4"/>
		</g>
		<g class="st1">
			<path class="st2" d="M65.4,6.5c32.3,0,58.4,26.2,58.4,58.4s-26.2,58.4-58.4,58.4"/>
		</g>
	</g>
	<path class="st3" d="M65.2,21.3c-24.1,0-43.6,19.7-43.6,44.1s19.5,44.1,43.6,44.1c24.1,0,43.6-19.7,43.6-44.1S89.3,21.3,65.2,21.3z
		 M107.6,57.2l-26.7,5.2c-0.1-0.6-0.3-1.1-0.4-1.7l26-8.2C106.9,54.1,107.3,55.7,107.6,57.2z M104.7,48.1l-24.9,11
		c-0.2-0.5-0.5-1.1-0.8-1.6l23.5-13.7C103.4,45.2,104.1,46.6,104.7,48.1z M96.9,36.1c1.1,1.2,2.1,2.4,3,3.7L78.1,56.1
		c-0.3-0.5-0.7-0.9-1.1-1.4L96.9,36.1z M93.5,32.8L75.7,53.5c-0.4-0.4-0.9-0.8-1.4-1.1l15.4-22.5C91,30.8,92.3,31.8,93.5,32.8z
		 M85.7,27.4L72.8,51.5c-0.5-0.3-1-0.5-1.6-0.7l10.1-25.4C82.8,26,84.3,26.7,85.7,27.4z M72.1,22.8c1.6,0.3,3.1,0.6,4.7,1l-7.2,26.3
		c-0.6-0.2-1.1-0.3-1.7-0.4L72.1,22.8z M67.4,22.3l-1.3,27.3c-0.6,0-1.2,0-1.8,0l-1.7-27.3C64.2,22.3,65.8,22.3,67.4,22.3z
		 M57.9,22.9l4.6,26.9c-0.6,0.1-1.1,0.2-1.7,0.4L53.3,24C54.8,23.5,56.4,23.2,57.9,22.9z M48.8,25.6l10.5,25.2
		c-0.5,0.2-1.1,0.5-1.6,0.8L44.5,27.7C45.9,26.9,47.3,26.2,48.8,25.6z M40.4,30.2l15.7,22.3c-0.5,0.3-0.9,0.7-1.4,1.1L36.7,33.2
		C37.9,32.1,39.2,31.1,40.4,30.2z M33.3,36.6l20.2,18.3c-0.4,0.4-0.8,0.9-1.1,1.4l-22.1-16C31.3,39,32.3,37.7,33.3,36.6z M27.8,44.3
		l23.7,13.4c-0.3,0.5-0.5,1-0.8,1.6l-25-10.7C26.3,47.1,27,45.7,27.8,44.3z M24.1,53.1L50.1,61c-0.2,0.6-0.3,1.1-0.4,1.7l-26.8-4.9
		C23.2,56.2,23.6,54.7,24.1,53.1z M22.2,65.5c0-1,0-2,0.1-3l27.1,1.9c0,0.4,0,0.7,0,1.1c0,0.2,0,0.4,0,0.7l-27.2,1.1
		C22.3,66.7,22.2,66.1,22.2,65.5z M22.7,72.1L49.6,68c0.1,0.6,0.2,1.2,0.4,1.7l-26.3,7.1C23.3,75.2,23,73.6,22.7,72.1z M25.2,81.3
		l25.3-10c0.2,0.5,0.5,1.1,0.7,1.6L27.2,85.7C26.5,84.3,25.8,82.8,25.2,81.3z M32.5,93.6c-1-1.2-2-2.5-2.9-3.8l22.5-15.3
		c0.3,0.5,0.7,1,1.1,1.4L32.5,93.6z M35.8,97l18.6-19.9c0.4,0.4,0.9,0.8,1.4,1.1l-16.3,21.8C38.2,99.2,37,98.1,35.8,97z M43.4,102.8
		l13.8-23.5c0.5,0.3,1,0.6,1.6,0.8L47.7,105C46.2,104.3,44.8,103.6,43.4,102.8z M52.1,106.7l8.3-26c0.6,0.2,1.1,0.3,1.7,0.4
		l-5.4,26.8C55.2,107.6,53.6,107.2,52.1,106.7z M65.3,108.8c-1.3,0-2.6-0.1-3.9-0.2l2.4-27.2c0.6,0.1,1.2,0.1,1.8,0.1l0.6,27.3
		C65.9,108.8,65.6,108.8,65.3,108.8z M70.9,108.4l-3.5-27.1c0.6-0.1,1.2-0.2,1.7-0.3l6.5,26.5C74.1,107.9,72.5,108.2,70.9,108.4z
		 M80.2,106.1l-9.4-25.6c0.5-0.2,1.1-0.4,1.6-0.7l12.2,24.4C83.2,104.9,81.7,105.6,80.2,106.1z M88.7,101.8L73.9,78.9
		c0.5-0.3,1-0.7,1.4-1L92.6,99C91.3,100,90,101,88.7,101.8z M96.1,95.8L76.7,76.7c0.4-0.4,0.8-0.9,1.2-1.3l21.4,16.9
		C98.2,93.5,97.2,94.7,96.1,95.8z M101.9,88.3L78.8,73.9c0.3-0.5,0.6-1,0.8-1.5l24.6,11.7C103.6,85.5,102.8,86.9,101.9,88.3z
		 M106,79.6l-25.7-8.9c0.2-0.5,0.3-1.1,0.5-1.7l26.5,6C107,76.6,106.6,78.1,106,79.6z M81.1,67.3c0.1-0.6,0.1-1.2,0.1-1.8
		c0-0.4,0-0.9-0.1-1.3l27.1-2.2c0.1,1.2,0.1,2.4,0.1,3.5c0,1.6-0.1,3.2-0.3,4.8L81.1,67.3z"/>
	<path class="st3" d="M74.7,43.9"/>
</g>
</svg>
