<?xml version="1.0" encoding="utf-8"?>
<!-- Generator: Adobe Illustrator 22.0.1, SVG Export Plug-In . SVG Version: 6.00 Build 0)  -->
<svg version="1.1" id="Calque_1" xmlns="http://www.w3.org/2000/svg" xmlns:xlink="http://www.w3.org/1999/xlink" x="0px" y="0px"
	 viewBox="0 0 128 128" style="enable-background:new 0 0 128 128;" xml:space="preserve">
<style type="text/css">
	.st0{fill:#F1EBBA;}
	.st1{opacity:0.59;}
	.st2{fill:#FFFFFF;}
	.st3{fill:#E4C421;}
</style>
<g>
	<g>
		<g id="cercle_fond_11_">
			<g>
				<circle class="st0" cx="63.5" cy="64.7" r="56.4"/>
			</g>
			<g class="st1">
				<path class="st2" d="M63.8,8.5c31.2,0,56.4,25.3,56.4,56.4S95,121.3,63.8,121.3"/>
			</g>
		</g>
		<path class="st3" d="M72.8,44.7"/>
		<path class="st3" d="M74.5,32.3c-15.1,0-27.4,12.4-27.4,27.7s12.3,27.7,27.4,27.7c15.1,0,27.4-12.4,27.4-27.7S89.7,32.3,74.5,32.3
			z M101.2,54.9l-16.8,3.3c-0.1-0.4-0.2-0.7-0.3-1.1l16.3-5.1C100.8,52.9,101,53.9,101.2,54.9z M99.4,49.2l-15.6,6.9
			c-0.1-0.3-0.3-0.7-0.5-1L98,46.5C98.5,47.4,99,48.3,99.4,49.2z M94.5,41.7c0.7,0.7,1.3,1.5,1.9,2.3L82.6,54.2
			c-0.2-0.3-0.5-0.6-0.7-0.9L94.5,41.7z M92.3,39.6l-11.2,13c-0.3-0.2-0.6-0.5-0.9-0.7L90,37.7C90.8,38.3,91.6,38.9,92.3,39.6z
			 M87.4,36.2l-8.1,15.1c-0.3-0.2-0.7-0.3-1-0.5l6.4-15.9C85.6,35.3,86.5,35.7,87.4,36.2z M78.9,33.3c1,0.2,2,0.4,2.9,0.6l-4.6,16.5
			c-0.4-0.1-0.7-0.2-1.1-0.2L78.9,33.3z M75.9,33l-0.8,17.1c-0.4,0-0.7,0-1.1,0L73,33C73.9,32.9,75,32.9,75.9,33z M70,33.3l2.9,16.9
			c-0.4,0.1-0.7,0.1-1.1,0.2L67.1,34C68,33.7,69,33.5,70,33.3z M64.2,35l6.6,15.8c-0.3,0.1-0.7,0.3-1,0.5l-8.3-15
			C62.4,35.9,63.3,35.4,64.2,35z M59,37.9l9.9,14c-0.3,0.2-0.6,0.4-0.9,0.7L56.6,39.8C57.4,39.1,58.2,38.5,59,37.9z M54.5,41.9
			l12.7,11.5c-0.2,0.3-0.5,0.6-0.7,0.9l-13.9-10C53.2,43.4,53.9,42.7,54.5,41.9z M51,46.8l14.9,8.4c-0.2,0.3-0.3,0.7-0.5,1
			l-15.7-6.7C50.1,48.6,50.5,47.7,51,46.8z M48.7,52.3l16.4,4.9c-0.1,0.3-0.2,0.7-0.3,1.1L48,55.3C48.2,54.3,48.4,53.3,48.7,52.3z
			 M47.6,60.1c0-0.6,0-1.3,0.1-1.9l17.1,1.2c0,0.2,0,0.5,0,0.7c0,0.1,0,0.3,0,0.4l-17.1,0.7C47.6,60.9,47.6,60.5,47.6,60.1z
			 M47.9,64.2l16.9-2.6c0.1,0.4,0.1,0.7,0.2,1.1l-16.5,4.4C48.2,66.2,48,65.2,47.9,64.2z M49.4,70l15.9-6.3c0.1,0.3,0.3,0.7,0.5,1
			l-15.1,8C50.2,71.9,49.8,71,49.4,70z M54,77.8c-0.6-0.8-1.3-1.6-1.8-2.4l14.2-9.6c0.2,0.3,0.4,0.6,0.7,0.9L54,77.8z M56.1,79.9
			l11.7-12.5c0.3,0.3,0.6,0.5,0.8,0.7L58.4,81.9C57.6,81.3,56.8,80.6,56.1,79.9z M60.9,83.5l8.7-14.8c0.3,0.2,0.6,0.4,1,0.5l-7,15.7
			C62.6,84.5,61.7,84,60.9,83.5z M66.3,86l5.2-16.3c0.3,0.1,0.7,0.2,1.1,0.3l-3.4,16.8C68.3,86.6,67.3,86.3,66.3,86z M74.6,87.3
			c-0.8,0-1.6,0-2.4-0.1l1.5-17.1c0.4,0,0.7,0,1.1,0l0.3,17.2C75,87.3,74.8,87.3,74.6,87.3z M78.2,87.1l-2.2-17
			c0.4,0,0.7-0.1,1.1-0.2l4.1,16.7C80.1,86.8,79.1,87,78.2,87.1z M84,85.6l-5.9-16.1c0.3-0.1,0.7-0.3,1-0.4l7.7,15.4
			C85.8,84.9,84.9,85.3,84,85.6z M89.3,82.9L80,68.5c0.3-0.2,0.6-0.4,0.9-0.7l10.8,13.3C91,81.8,90.2,82.4,89.3,82.9z M94,79.2
			l-12.2-12c0.3-0.3,0.5-0.5,0.7-0.8l13.5,10.6C95.3,77.7,94.7,78.4,94,79.2z M97.6,74.4l-14.5-9c0.2-0.3,0.4-0.6,0.5-1l15.4,7.4
			C98.7,72.7,98.2,73.6,97.6,74.4z M100.2,69l-16.2-5.6c0.1-0.3,0.2-0.7,0.3-1.1l16.7,3.8C100.8,67.1,100.5,68,100.2,69z M84.5,61.2
			c0-0.4,0.1-0.7,0.1-1.1c0-0.3,0-0.6,0-0.8l17-1.4c0.1,0.7,0.1,1.5,0.1,2.2c0,1-0.1,2-0.2,3L84.5,61.2z"/>
	</g>
	<path class="st2" d="M60.5,70.5c-0.1,0.7-9.6-23.8-16,0c-4.5-17.3-16.7-9.8-14.9,1.3c-6.4-7.8-11.4-4-11.2,4
		c-5.3-6.3-7.1,6-3.1,7.5h50.9c0,0,9.1-6,2.6-12.3C78.6,69.3,64.3,48.5,60.5,70.5z M37,62c2.8,0.3,2.9,3,2.9,3L37,62z M70.5,67.6
		l-2.9-5.7C71.6,63.9,70.5,67.6,70.5,67.6z"/>
	<path class="st2" d="M78,91.8c-0.1,0.4-4.7-12.8-7.9,0c-2.2-9.3-8.2-5.3-7.3,0.7c-3.2-4.2-5.6-2.2-5.5,2.2
		c-2.6-3.4-3.5,3.2-1.5,4.1h25.1c0,0,4.5-3.2,1.3-6.6C87,91.1,79.9,79.9,78,91.8z M66.5,87.2c1.4,0.2,1.4,1.6,1.4,1.6L66.5,87.2z
		 M83,90.2l-1.5-3C83.5,88.2,83,90.2,83,90.2z"/>
</g>
</svg>
